<?xml version="1.0" standalone="no"?>
<!DOCTYPE svg PUBLIC "-//W3C//DTD SVG 20010904//EN"
 "http://www.w3.org/TR/2001/REC-SVG-20010904/DTD/svg10.dtd">
<svg version="1.0" xmlns="http://www.w3.org/2000/svg"
 width="2000.000000pt" height="2000.000000pt" viewBox="0 0 2000.000000 2000.000000"
 preserveAspectRatio="xMidYMid meet">

<g transform="translate(0.000000,2000.000000) scale(0.100000,-0.100000)"
fill="#000000" stroke="none">
<path d="M15940 18426 c-147 -41 -355 -206 -467 -372 -49 -71 -124 -220 -163
-319 -37 -97 -94 -304 -184 -675 -88 -360 -92 -380 -106 -575 -14 -186 -26
-272 -115 -808 -15 -86 -40 -334 -60 -590 -19 -243 -39 -500 -45 -572 -6 -71
-22 -240 -36 -375 -37 -367 -45 -622 -33 -1125 25 -1143 28 -1193 83 -1587 28
-198 35 -213 162 -349 68 -73 95 -112 138 -197 29 -59 63 -137 76 -174 l22
-66 -21 -61 c-12 -34 -21 -78 -21 -99 0 -49 42 -133 92 -186 l40 -41 4 -130
c2 -71 8 -184 13 -250 7 -85 5 -288 -7 -695 -11 -375 -15 -804 -14 -1235 4
-977 -10 -1271 -98 -2005 -21 -175 -45 -416 -55 -565 -3 -49 -19 -209 -35
-355 -16 -146 -41 -432 -55 -635 -49 -724 -76 -1054 -110 -1345 -30 -253 -15
-529 40 -729 87 -319 334 -617 572 -691 118 -36 396 -21 542 31 182 63 362
274 416 486 30 117 35 206 35 618 0 454 -7 590 -45 875 -24 185 -82 691 -111
975 -12 114 -18 362 -24 1045 -10 1047 -12 1105 -85 1830 -93 939 -98 1067
-77 1950 14 573 16 592 68 755 22 69 29 82 57 95 46 22 65 63 78 172 14 124 2
186 -52 265 -21 32 -39 68 -39 80 0 12 -3 24 -8 27 -4 2 -7 1680 -6 3728 1
2511 -1 3727 -8 3736 -6 6 -18 12 -28 12 -10 0 -34 22 -53 49 -60 84 -156 110
-277 77z m165 -98 c16 -7 52 -50 86 -102 l59 -89 -5 -641 c-3 -353 -10 -1008
-16 -1456 -5 -448 -12 -1809 -16 -3023 l-6 -2208 -26 -13 c-34 -17 -252 -73
-316 -81 -93 -12 -458 13 -581 40 -13 3 -28 23 -43 62 -59 145 -104 217 -202
318 -53 56 -104 115 -113 132 -60 118 -94 812 -95 1963 -1 400 5 511 44 905
23 230 85 981 100 1205 8 118 21 204 89 607 31 176 60 372 66 435 25 268 34
322 77 488 24 96 71 281 104 412 32 130 75 282 95 339 41 119 118 276 180 369
101 152 283 299 414 334 69 18 73 19 105 4z m146 -7641 c27 -12 43 -30 59 -63
20 -41 22 -56 16 -133 -9 -127 -10 -129 -65 -136 -25 -3 -66 -9 -91 -14 -51
-11 -66 -6 -49 15 16 20 23 268 8 296 -6 11 -8 22 -6 25 8 7 81 32 87 30 3 -2
21 -11 41 -20z m-706 -41 c94 -9 191 -18 218 -22 l47 -6 0 -120 c0 -65 4 -127
10 -137 10 -19 26 -17 -300 -38 -93 -5 -95 -5 -105 18 -9 21 -16 24 -58 22
-47 -1 -49 0 -78 45 -43 68 -39 132 12 183 14 14 17 27 12 50 l-6 32 39 -6
c21 -3 116 -13 209 -21z m322 -412 c3 -8 0 -27 -6 -41 -9 -19 -8 -221 1 -825
11 -759 11 -801 -6 -829 -17 -28 -18 -59 -12 -412 6 -364 18 -674 35 -892 5
-56 4 -223 -2 -380 -11 -292 0 -785 25 -1140 9 -136 9 -225 -2 -435 -9 -190
-11 -366 -5 -620 4 -195 8 -607 9 -915 2 -432 5 -567 15 -590 19 -43 27 -572
12 -730 -24 -256 -26 -263 -106 -403 l-73 -127 -56 -3 c-44 -2 -69 3 -113 23
-161 73 -308 192 -362 292 -22 40 -31 49 -58 51 -31 3 -34 7 -53 70 -42 133
-51 197 -57 382 -5 162 -2 210 21 385 58 449 81 687 121 1240 28 384 36 480
65 725 11 91 26 251 35 355 9 105 25 269 36 365 108 946 103 849 105 1960 0
525 6 1169 13 1430 12 489 11 561 -15 836 -9 88 -14 175 -12 194 l3 33 105 4
c58 2 107 6 109 9 2 2 53 4 113 4 89 0 110 -3 115 -16z m301 -81 c-39 -133
-46 -214 -58 -718 -20 -849 -24 -775 90 -1950 56 -582 68 -869 80 -1940 5
-407 14 -794 20 -860 15 -171 64 -607 110 -975 49 -387 60 -557 60 -905 0
-371 -17 -547 -61 -658 l-12 -27 -23 25 c-13 14 -31 26 -41 26 -10 1 -30 2
-45 3 l-26 1 -5 415 c-5 399 -25 904 -46 1155 -6 66 -15 275 -21 465 -18 570
-46 1175 -55 1189 -3 6 -7 201 -9 433 -4 417 -11 575 -61 1343 -30 462 -30
452 -13 950 17 511 17 491 -6 508 -18 13 -18 28 -7 433 9 353 13 426 27 453
11 22 15 48 11 77 -3 30 0 50 12 66 13 19 17 63 20 273 2 138 3 262 3 277 -1
28 10 35 59 37 l26 1 -29 -97z"/>
<path d="M10017 17584 c-174 -31 -330 -102 -484 -218 -117 -88 -249 -221 -259
-261 -4 -15 -48 -82 -98 -149 -143 -190 -246 -374 -346 -616 -480 -1169 -373
-2774 249 -3712 105 -158 189 -258 324 -385 55 -52 100 -121 212 -323 77 -138
111 -187 134 -195 12 -3 35 -43 64 -108 94 -210 132 -411 124 -648 -3 -79 -10
-353 -16 -609 -12 -575 -26 -801 -71 -1140 -21 -155 -40 -361 -65 -690 -9
-113 -25 -270 -35 -349 -11 -79 -27 -228 -35 -330 -9 -102 -23 -256 -31 -341
-8 -85 -19 -364 -24 -620 -12 -608 -26 -895 -50 -1055 -5 -33 -23 -191 -40
-351 -36 -351 -58 -486 -116 -709 -40 -156 -100 -465 -139 -710 -30 -190 -76
-430 -106 -554 -46 -191 -59 -321 -62 -609 -2 -281 5 -348 54 -522 84 -303
185 -470 361 -601 74 -54 206 -125 292 -155 150 -54 373 -75 556 -55 334 38
460 119 589 378 63 126 94 225 115 363 27 179 29 229 17 481 -15 312 -22 373
-76 664 -25 132 -56 319 -71 415 -14 96 -29 200 -34 230 -5 30 -25 163 -45
295 -19 132 -44 292 -55 355 -11 63 -24 192 -30 285 -13 221 -15 240 -56 506
-42 279 -81 712 -89 1004 -7 266 -29 634 -55 925 -24 277 -29 354 -40 705 -6
160 -17 346 -25 415 -8 69 -22 213 -30 320 -8 107 -22 263 -30 345 -10 100
-15 268 -15 505 0 195 -7 468 -15 605 -25 426 -18 731 21 930 50 253 116 460
180 562 27 43 39 52 65 55 29 3 50 24 191 198 393 484 547 732 692 1112 427
1119 332 2605 -227 3544 -192 323 -456 588 -712 716 -208 104 -444 141 -658
102z m408 -238 c171 -52 316 -142 474 -298 385 -382 651 -1039 737 -1823 22
-198 25 -706 6 -895 -30 -286 -87 -579 -162 -830 -184 -610 -525 -1093 -903
-1280 -84 -42 -240 -90 -290 -90 -27 0 -28 1 -20 38 17 79 7 153 -37 277 -23
66 -53 160 -66 208 -53 196 -75 603 -79 1467 -2 349 -7 707 -10 795 -3 88 -10
502 -15 920 -11 846 -17 980 -59 1240 -17 99 -33 201 -36 227 l-7 47 38 10
c72 18 89 20 214 16 100 -2 143 -8 215 -29z m-1268 -822 c45 -34 110 -136 133
-211 23 -75 54 -251 71 -408 8 -70 13 -322 14 -695 2 -366 8 -656 16 -775 9
-123 14 -373 14 -710 0 -486 -2 -531 -23 -680 -12 -88 -29 -191 -37 -230 -8
-38 -15 -73 -15 -77 0 -5 -54 -28 -66 -28 -7 0 -84 121 -137 215 -212 377
-354 855 -413 1397 -22 192 -25 703 -6 888 48 467 161 907 318 1238 59 126 62
128 131 76z m984 -4341 c-8 -15 -10 -15 -11 -2 0 17 10 32 18 25 2 -3 -1 -13
-7 -23z m423 -242 c-15 -23 -28 -40 -29 -39 -2 2 0 18 2 36 4 22 13 36 27 42
31 11 31 6 0 -39z m-582 -5 c40 -8 117 -18 171 -22 53 -4 97 -10 97 -15 0 -4
-4 -19 -9 -32 -11 -29 -26 -333 -23 -461 4 -124 -16 -432 -34 -544 -72 -449
-78 -1203 -13 -1707 26 -206 76 -1068 90 -1545 6 -217 14 -451 19 -520 9 -118
16 -312 40 -1030 6 -168 17 -402 25 -520 8 -118 23 -393 35 -610 27 -528 55
-919 86 -1185 13 -121 33 -303 44 -405 11 -102 38 -309 61 -460 38 -251 41
-287 36 -415 -4 -105 -10 -158 -27 -210 -12 -38 -34 -117 -50 -175 -16 -58
-39 -132 -51 -165 -13 -35 -22 -86 -23 -122 l-1 -63 -43 -6 c-24 -4 -105 -4
-180 -1 -213 8 -383 62 -553 178 -147 99 -246 274 -315 554 -57 228 -40 704
35 1003 28 112 66 307 106 552 56 336 103 582 140 740 44 188 72 382 90 644 9
116 24 303 35 416 29 300 40 564 50 1130 5 278 14 543 19 590 5 47 15 155 21
240 6 85 25 270 41 410 16 140 36 347 44 460 16 235 25 320 65 625 53 402 71
670 85 1210 4 144 14 299 26 389 23 179 24 239 4 380 -28 198 -50 285 -108
421 -26 62 -111 245 -129 279 -8 15 -7 18 5 13 9 -3 49 -13 89 -21z m528
-4806 c12 -146 25 -400 30 -565 11 -355 32 -671 61 -885 32 -241 32 -237 20
-244 -6 -4 -11 -4 -11 1 0 4 -14 127 -31 273 -16 146 -34 351 -39 455 -11 228
-39 624 -46 644 -3 8 -9 114 -14 235 -5 122 -16 297 -25 391 -14 144 -15 176
-3 210 15 45 14 51 58 -515z"/>
<path d="M5263 17520 c-43 -26 -74 -76 -122 -195 -71 -180 -76 -219 -76 -650
0 -381 11 -615 56 -1190 23 -303 25 -497 10 -1065 -11 -429 -24 -568 -58 -637
-22 -45 -33 -49 -65 -23 -63 49 -94 161 -108 390 -40 672 -38 1466 5 2080 18
268 22 852 5 990 -16 139 -44 214 -96 267 -34 34 -51 43 -77 43 -43 0 -81 -29
-110 -83 l-22 -42 0 -1705 c-1 -1810 -1 -1825 -48 -1920 -20 -40 -26 -45 -61
-48 -29 -3 -44 2 -63 20 -79 74 -98 284 -74 793 6 105 13 372 16 595 3 223 12
506 20 630 36 558 46 1079 25 1332 -15 185 -59 360 -102 405 -35 37 -94 32
-146 -12 -75 -64 -110 -172 -148 -455 -29 -213 -21 -717 27 -1685 13 -270 6
-1186 -10 -1315 -20 -156 -51 -293 -74 -324 -41 -56 -121 100 -146 284 -6 41
-15 129 -21 194 -6 66 -18 180 -26 255 -33 293 -30 712 11 1616 9 176 15 374
15 440 0 147 29 519 41 523 23 9 28 41 14 93 -20 76 -20 222 1 239 9 8 14 25
12 44 l-3 31 -75 3 c-74 3 -76 4 -87 32 -16 41 -56 42 -73 1 -7 -17 -22 -32
-36 -35 -51 -13 -63 -106 -14 -106 39 0 39 16 -11 -495 -25 -256 -27 -386 -14
-1085 6 -283 7 -733 4 -1000 -6 -447 -8 -500 -32 -670 -46 -330 -52 -421 -51
-750 0 -348 8 -425 65 -595 63 -191 161 -351 338 -556 117 -135 222 -279 257
-354 39 -81 69 -193 83 -304 17 -137 24 -603 12 -766 -7 -82 -16 -384 -21
-670 -9 -487 -16 -629 -39 -816 -6 -41 -17 -174 -26 -295 -9 -120 -29 -311
-45 -424 -56 -398 -86 -668 -95 -870 -3 -74 -15 -241 -25 -370 -11 -129 -24
-347 -30 -485 -11 -261 -41 -596 -66 -750 -8 -51 -19 -230 -24 -410 -10 -317
-33 -602 -69 -864 -11 -75 -22 -170 -26 -211 -13 -156 -66 -546 -90 -668 -36
-176 -79 -335 -124 -455 -91 -244 -116 -388 -101 -593 9 -116 11 -129 41 -294
73 -394 302 -740 575 -867 57 -27 64 -28 199 -25 170 4 247 4 323 1 44 -2 67
2 102 20 24 13 85 35 135 48 110 31 203 72 257 115 23 18 80 85 128 149 94
125 103 148 131 329 6 41 20 113 30 160 30 136 50 435 49 745 0 343 -16 511
-69 745 -12 55 -82 418 -121 635 -16 88 -43 255 -60 370 -16 116 -41 275 -55
354 -20 115 -25 178 -25 313 l0 170 -32 31 c-23 23 -34 46 -40 82 -32 195 -48
336 -58 510 -10 189 -28 410 -85 1070 -14 154 -32 388 -40 520 -9 132 -27 375
-40 540 -39 485 -47 706 -43 1180 5 414 26 955 48 1215 13 155 55 520 70 600
39 224 107 345 305 550 134 139 186 204 223 283 38 81 77 215 94 327 18 117
18 1081 1 1230 -7 58 -20 296 -28 530 -8 234 -20 511 -26 615 -7 114 -9 303
-5 470 16 738 18 1143 6 1266 -7 68 -16 214 -20 324 -10 262 -21 315 -71 340
-37 19 -48 19 -86 -5z m-985 -140 c7 -25 23 -92 34 -150 39 -210 36 -861 -9
-1475 -11 -151 -16 -433 -19 -1003 -6 -871 -5 -884 54 -1002 68 -138 230 -147
299 -17 54 104 64 453 67 2242 2 1405 4 1454 39 1442 25 -8 67 -94 77 -157 26
-157 19 -894 -10 -1156 -5 -43 -14 -322 -20 -619 -10 -465 -9 -575 4 -790 9
-137 21 -338 26 -445 9 -180 25 -310 48 -385 49 -161 163 -243 234 -167 78 83
90 177 119 917 12 317 8 727 -10 910 -34 341 -47 1295 -21 1510 17 140 83 355
109 355 10 0 18 -50 27 -165 3 -44 12 -98 19 -120 30 -88 40 -317 35 -775 -10
-960 1 -1724 32 -2215 18 -281 17 -1190 -1 -1310 -25 -165 -76 -310 -138 -393
-29 -39 -39 -35 -41 15 -1 28 -9 44 -29 62 -27 24 -30 24 -168 17 -77 -3 -198
-15 -270 -26 -71 -11 -229 -24 -351 -30 -243 -10 -298 -19 -361 -56 -70 -41
-71 -106 -2 -112 30 -3 39 -11 71 -65 65 -108 124 -173 235 -259 77 -60 117
-99 139 -135 60 -100 89 -232 104 -463 17 -258 40 -536 52 -637 9 -73 9 -144
-1 -325 -20 -333 -25 -961 -12 -1223 7 -121 21 -328 32 -460 25 -309 36 -444
49 -635 15 -235 39 -540 52 -685 16 -179 13 -558 -6 -805 -30 -387 -46 -733
-46 -990 0 -244 24 -879 35 -928 10 -42 25 -625 26 -1012 1 -374 -5 -494 -42
-875 -38 -397 -52 -480 -108 -647 -50 -147 -71 -191 -127 -260 -45 -55 -48
-57 -118 -69 -114 -20 -213 -16 -271 10 -188 84 -375 323 -469 601 -73 217
-112 532 -86 698 7 44 35 145 62 224 135 391 183 630 243 1218 9 85 22 205 30
265 34 254 55 497 65 755 11 307 15 361 35 505 25 174 44 393 55 605 16 329
20 402 40 645 10 127 22 286 25 355 8 159 26 334 75 735 22 176 44 403 50 505
6 102 20 264 31 360 11 105 23 317 29 530 6 195 15 492 22 660 27 755 21 1039
-27 1223 -45 174 -96 255 -350 552 -199 233 -282 378 -343 602 -26 98 -26 99
-27 478 0 390 5 464 52 797 22 159 32 1721 12 1963 -19 234 -16 476 10 705 12
107 27 255 33 328 8 84 16 131 22 129 6 -2 21 -30 32 -63 20 -54 21 -70 13
-169 -11 -141 -25 -445 -44 -960 -9 -225 -20 -507 -25 -625 -20 -453 -21 -520
-11 -690 13 -208 54 -606 81 -776 37 -236 129 -382 225 -358 37 9 82 66 100
126 27 89 53 265 65 438 19 279 17 1140 -4 1575 -10 213 -19 562 -19 795 -2
384 0 426 21 565 25 170 42 235 75 282 29 43 48 38 65 -17z"/>
</g>
</svg>
